<svg width="800" height="800" viewBox="0 0 800 800" fill="none" xmlns="http://www.w3.org/2000/svg">
<path d="M586.371 197.329V287.641C544.975 269.996 476.959 296.219 400.011 296.219C323.063 296.219 254.936 270.107 213.541 287.641V197.329C252.581 173.107 321.441 157.084 399.878 157.084C478.315 157.084 547.33 173.107 586.371 197.329Z" fill="#1FDB99"/>
<path d="M771.976 169.084L710.56 193.329V309.13C714.394 311.395 717.569 314.623 719.771 318.494C721.973 322.364 723.126 326.743 723.114 331.196C723.153 335.624 722.026 339.985 719.845 343.839C717.665 347.693 714.509 350.905 710.693 353.152C714.502 355.429 717.651 358.66 719.829 362.526C722.007 366.392 723.14 370.759 723.114 375.197V444.597H672.897V375.286C672.887 370.863 674.027 366.514 676.204 362.665C678.382 358.816 681.522 355.599 685.318 353.33C681.515 351.029 678.372 347.783 676.195 343.908C674.017 340.032 672.88 335.659 672.894 331.214C672.907 326.769 674.071 322.403 676.271 318.541C678.472 314.679 681.634 311.452 685.451 309.174V107.484L771.976 141.684C774.705 142.788 777.042 144.682 778.688 147.123C780.334 149.564 781.213 152.44 781.213 155.384C781.213 158.328 780.334 161.205 778.688 163.646C777.042 166.087 774.705 167.981 771.976 169.084Z" fill="#1FDB99"/>
<path d="M669.784 101.329V209.685L602.213 236.44V188.485L594.636 183.84C551.618 157.173 478.758 141.195 399.966 141.195C321.174 141.195 248.403 157.084 205.407 183.84L197.808 188.485V236.44L27.936 169.196C25.2034 168.101 22.8612 166.214 21.2114 163.776C19.5615 161.338 18.6798 158.462 18.6798 155.518C18.6798 152.574 19.5615 149.698 21.2114 147.26C22.8612 144.822 25.2034 142.934 27.936 141.84L373.347 5.08369C390.431 -1.69456 409.457 -1.69456 426.541 5.08369L669.784 101.329Z" fill="#1FDB99"/>
<path d="M794.485 627.709C792.883 627.016 791.089 626.9 789.411 627.383C787.733 627.865 786.275 628.915 785.286 630.354C757.422 668.132 726.847 691.91 694.184 701.243C689.94 731.754 680.385 757.377 665.698 777.555C670.808 777.688 675.897 777.799 681.118 777.799C753.311 777.777 793.307 730.132 799.973 636.154C800.12 634.338 799.661 632.524 798.668 630.996C797.675 629.468 796.204 628.313 794.485 627.709Z" fill="#1FDB99"/>
<path d="M14.6267 630.487C13.6627 629.05 12.2256 627.996 10.5652 627.509C8.90486 627.022 7.12628 627.132 5.53872 627.821C3.77958 628.405 2.2745 629.576 1.27541 631.137C0.276321 632.699 -0.156152 634.556 0.0503705 636.398C6.71638 730.377 46.7125 778.066 118.905 778.066C124.127 778.066 129.215 777.933 134.326 777.799C119.639 757.621 109.884 732.021 105.84 701.488C73.0432 692.021 42.4684 668.199 14.6267 630.487Z" fill="#1FDB99"/>
<path d="M659.34 662.776C657.599 662.195 655.705 662.285 654.027 663.029C652.35 663.773 651.011 665.118 650.274 666.799C628.276 708.31 602.79 729.888 574.437 730.643C514.998 732.288 489.401 686.865 488.401 684.843C486.406 681.218 485.912 676.956 487.025 672.971C488.139 668.986 490.771 665.597 494.356 663.532C496.136 662.532 498.098 661.899 500.126 661.669C502.155 661.439 504.209 661.617 506.167 662.193C508.126 662.769 509.949 663.73 511.531 665.021C513.112 666.312 514.42 667.906 515.376 669.71C516.021 670.843 533.419 700.488 573.548 699.199C581.903 698.954 589.747 694.754 596.813 688.265C582.871 680.291 569.788 670.9 557.772 660.243C547.159 650.861 540.286 637.965 538.412 623.923C536.539 609.882 539.791 595.635 547.573 583.798C587.369 523.909 612.967 449.086 612.967 393.219C612.967 349.308 605.767 321.819 590.969 308.774C571.704 291.752 535.908 297.041 490.779 303.597C463.426 307.641 432.584 312.063 400.01 312.063C367.435 312.063 336.594 307.508 309.263 303.597C264.023 296.93 228.315 291.863 209.051 308.774C194.252 321.752 187.053 349.375 187.053 393.219C187.053 449.086 212.784 523.909 252.446 583.798C260.201 595.644 263.437 609.884 261.565 623.918C259.692 637.952 252.836 650.845 242.247 660.243C230.211 670.865 217.139 680.252 203.229 688.265C210.317 694.688 218.116 698.954 226.471 699.199C237.909 699.783 249.3 697.358 259.508 692.164C269.715 686.97 278.382 679.189 284.643 669.599C286.661 666.042 289.998 663.423 293.932 662.308C297.866 661.194 302.08 661.673 305.663 663.643C309.228 665.699 311.846 669.068 312.959 673.03C314.072 676.992 313.591 681.232 311.618 684.843C302.669 699.461 289.97 711.416 274.842 719.47C259.713 727.524 242.705 731.381 225.582 730.643C197.23 729.888 171.632 708.31 149.745 666.799C148.96 665.132 147.598 663.807 145.911 663.067C144.224 662.328 142.326 662.224 140.568 662.776C138.711 663.204 137.065 664.275 135.922 665.8C134.779 667.326 134.213 669.207 134.325 671.11C135.702 729.888 157.211 799.999 252.313 799.999C298.442 799.999 335.372 768.355 362.08 706.021C365.198 698.574 370.447 692.214 377.168 687.742C383.889 683.269 391.781 680.883 399.854 680.883C407.927 680.883 415.82 683.269 422.54 687.742C429.261 692.214 434.51 698.574 437.628 706.021C464.448 768.466 501.444 799.999 547.462 799.999C642.564 799.999 664.073 729.888 665.45 671.11C665.609 669.217 665.078 667.33 663.955 665.799C662.832 664.267 661.193 663.194 659.34 662.776ZM331.394 518.976C324.469 518.971 317.701 516.913 311.945 513.062C306.189 509.211 301.704 503.74 299.057 497.34C296.41 490.94 295.72 483.899 297.073 477.107C298.427 470.315 301.764 464.076 306.662 459.181C311.561 454.285 317.8 450.952 324.593 449.602C331.385 448.252 338.425 448.947 344.823 451.599C351.22 454.25 356.688 458.739 360.535 464.498C364.382 470.257 366.435 477.027 366.435 483.953C366.435 488.554 365.529 493.11 363.767 497.361C362.006 501.611 359.425 505.473 356.171 508.726C352.916 511.978 349.053 514.557 344.802 516.316C340.551 518.075 335.995 518.978 331.394 518.976ZM468.892 518.976C461.965 518.976 455.193 516.921 449.434 513.072C443.675 509.222 439.186 503.751 436.537 497.35C433.887 490.95 433.195 483.907 434.548 477.112C435.901 470.318 439.238 464.078 444.138 459.181C449.037 454.284 455.279 450.95 462.074 449.601C468.868 448.252 475.91 448.949 482.308 451.603C488.707 454.257 494.175 458.75 498.02 464.512C501.865 470.274 503.915 477.048 503.911 483.975C503.905 488.569 502.994 493.116 501.231 497.357C499.468 501.599 496.887 505.452 493.635 508.695C490.384 511.939 486.525 514.511 482.279 516.263C478.034 518.016 473.485 518.915 468.892 518.909V518.976Z" fill="#1FDB99"/>
</svg>
